<svg width="38" height="38" fill="none" xmlns="http://www.w3.org/2000/svg"><path fill-rule="evenodd" clip-rule="evenodd" d="M18.074 3.792a3.152 3.152 0 011.852 0l4.728 1.453a26.475 26.475 0 016.952 3.308c1.667 1.117.877 3.718-1.13 3.718H7.524c-2.007 0-2.797-2.601-1.13-3.718a26.475 26.475 0 016.953-3.308l4.727-1.453zm1.154 2.27a.777.777 0 00-.456 0l-4.728 1.454a24.1 24.1 0 00-5.335 2.38h20.582a24.1 24.1 0 00-5.335-2.38l-4.728-1.453z" fill="#2C6762"/><path d="M6.73 33.25c0-.656.53-1.187 1.187-1.187h22.166a1.188 1.188 0 010 2.375H7.917a1.187 1.187 0 01-1.188-1.188zm3.166-6.333a1.188 1.188 0 002.375 0v-9.5a1.188 1.188 0 00-2.375 0v9.5zM19 28.104a1.187 1.187 0 01-1.187-1.187v-9.5a1.187 1.187 0 112.375 0v9.5c0 .656-.532 1.187-1.188 1.187zm6.73-1.187a1.188 1.188 0 002.374 0v-9.5a1.187 1.187 0 10-2.375 0v9.5z" fill="#2C6762"/></svg>