<svg width="38" height="38" fill="none" xmlns="http://www.w3.org/2000/svg"><path fill-rule="evenodd" clip-rule="evenodd" d="M18.385 5.228a2.15 2.15 0 011.177 0c.82.232 1.647.448 2.477.664 3.896 1.016 7.853 2.048 11.373 4.916l1.622 1.32c.657.536.986 1.329.987 2.122v11.083a1.188 1.188 0 01-2.375 0v-7.827l-.258.21a18.915 18.915 0 01-3.797 2.396c.062.145.096.304.096.471v6.799c0 1.794-1.1 3.405-2.772 4.056l-6.334 2.47a4.353 4.353 0 01-3.163 0l-6.333-2.47a4.354 4.354 0 01-2.773-4.056v-6.799c0-.171.037-.334.102-.481a19.07 19.07 0 01-3.827-2.41l-1.621-1.32C1.65 15.3 1.65 13.2 2.964 12.126l1.648-1.344c3.495-2.852 7.424-3.878 11.292-4.888.831-.217 1.66-.433 2.48-.667zm15.26 9.023c0-.143-.057-.237-.111-.281l-1.621-1.32c-3.413-2.36-6.454-3.4-10.317-4.415-.849-.223-1.722-.452-2.622-.707-.903.257-1.78.487-2.631.711-3.832 1.008-7.17 1.887-10.23 4.383l-1.647 1.345c-.054.044-.112.138-.112.28 0 .143.058.238.112.282l1.621 1.32c3.085 2.513 6.454 3.398 10.316 4.413.85.223 1.723.453 2.622.707.903-.256 1.78-.487 2.632-.711 3.831-1.008 7.17-1.886 10.23-4.383l1.647-1.344c.054-.044.112-.139.112-.281zm-11.549 8.353c1.741-.454 3.495-.912 5.216-1.539v6.317c0 .815-.5 1.547-1.26 1.844l-6.333 2.469c-.463.18-.976.18-1.438 0l-6.333-2.47a1.98 1.98 0 01-1.26-1.843v-6.33c1.74.634 3.512 1.096 5.273 1.555.83.217 1.657.432 2.476.665.386.11.792.11 1.178 0 .82-.234 1.65-.45 2.481-.668z" fill="#2C6762"/></svg>