<svg width="38" height="38" viewBox="0 0 38 38" fill="none" xmlns="http://www.w3.org/2000/svg">
<path fill-rule="evenodd" clip-rule="evenodd" d="M19.0002 9.89583C16.1582 9.89583 13.8543 12.1997 13.8543 15.0417C13.8543 17.8836 16.1582 20.1875 19.0002 20.1875C21.8421 20.1875 24.146 17.8836 24.146 15.0417C24.146 12.1997 21.8421 9.89583 19.0002 9.89583ZM16.2293 15.0417C16.2293 13.5114 17.4699 12.2708 19.0002 12.2708C20.5305 12.2708 21.771 13.5114 21.771 15.0417C21.771 16.572 20.5305 17.8125 19.0002 17.8125C17.4699 17.8125 16.2293 16.572 16.2293 15.0417Z" fill="#2C6762"/>
<path fill-rule="evenodd" clip-rule="evenodd" d="M19.0002 3.5625C12.6604 3.5625 7.521 8.7019 7.521 15.0417C7.521 17.3662 8.21194 19.5294 9.39965 21.337L5.30509 28.429C5.07224 28.8323 5.09663 29.3345 5.36747 29.7133C5.63831 30.0922 6.1056 30.2777 6.56256 30.1879L10.7012 29.3743L12.0659 33.3653C12.2166 33.8059 12.6109 34.1178 13.0745 34.1629C13.538 34.2081 13.9851 33.9781 14.2179 33.5748L18.3026 26.5C18.5333 26.5138 18.7659 26.5208 19.0002 26.5208C19.2344 26.5208 19.467 26.5138 19.6978 26.5L23.7824 33.5748C24.0155 33.9785 24.4632 34.2085 24.9272 34.1628C25.3911 34.1171 25.7854 33.8043 25.9353 33.3628L27.2931 29.3638L31.4353 30.1874C31.8925 30.2783 32.3606 30.0933 32.6321 29.7144C32.9037 29.3354 32.9283 28.8327 32.6953 28.429L28.6007 21.337C29.7884 19.5294 30.4793 17.3662 30.4793 15.0417C30.4793 8.7019 25.3399 3.5625 19.0002 3.5625ZM9.896 15.0417C9.896 10.0136 13.9721 5.9375 19.0002 5.9375C24.0283 5.9375 28.1043 10.0136 28.1043 15.0417C28.1043 20.0698 24.0283 24.1458 19.0002 24.1458C13.9721 24.1458 9.896 20.0698 9.896 15.0417ZM15.8078 26.0711C13.9822 25.5436 12.3438 24.5752 11.0153 23.2886L8.66844 27.3535L11.2603 26.8439C11.8431 26.7294 12.4208 27.063 12.613 27.6249L13.4677 30.1243L15.8078 26.0711ZM24.5289 30.1178L22.1926 26.0711C24.0181 25.5436 25.6566 24.5752 26.9851 23.2886L29.3281 27.3469L26.735 26.8313C26.1506 26.7151 25.5705 27.05 25.3789 27.6142L24.5289 30.1178Z" fill="#2C6762"/>
</svg>
