<svg width="38" height="38" viewBox="0 0 38 38" fill="none" xmlns="http://www.w3.org/2000/svg">
<path fill-rule="evenodd" clip-rule="evenodd" d="M18.074 3.79242C18.6774 3.60695 19.3227 3.60695 19.9261 3.79242L24.6535 5.2454C27.1198 6.00341 29.462 7.11785 31.6059 8.55339C33.2734 9.66994 32.483 12.271 30.4762 12.271H7.52392C5.51713 12.271 4.72673 9.66995 6.39422 8.5534C8.53811 7.11785 10.8803 6.00341 13.3466 5.2454L18.074 3.79242ZM19.2284 6.06262C19.0796 6.01689 18.9205 6.01689 18.7717 6.06262L14.0443 7.51559C12.1747 8.09022 10.3834 8.88986 8.7095 9.89595H29.2906C27.6167 8.88986 25.8254 8.09022 23.9558 7.51559L19.2284 6.06262Z" fill="#2C6762"/>
<path d="M6.72924 33.2501C6.72924 32.5943 7.2609 32.0626 7.91674 32.0626H30.0834C30.7392 32.0626 31.2709 32.5943 31.2709 33.2501C31.2709 33.906 30.7392 34.4376 30.0834 34.4376H7.91674C7.2609 34.4376 6.72924 33.906 6.72924 33.2501Z" fill="#2C6762"/>
<path d="M9.8959 26.9168C9.8959 27.5726 10.4276 28.1043 11.0834 28.1043C11.7392 28.1043 12.2709 27.5726 12.2709 26.9168L12.2709 17.4168C12.2709 16.761 11.7392 16.2293 11.0834 16.2293C10.4276 16.2293 9.8959 16.761 9.8959 17.4168L9.8959 26.9168Z" fill="#2C6762"/>
<path d="M19.0001 28.1043C18.3442 28.1043 17.8126 27.5726 17.8126 26.9168L17.8126 17.4168C17.8126 16.761 18.3442 16.2293 19.0001 16.2293C19.6559 16.2293 20.1876 16.761 20.1876 17.4168V26.9168C20.1876 27.5726 19.6559 28.1043 19.0001 28.1043Z" fill="#2C6762"/>
<path d="M25.7292 26.9168C25.7292 27.5726 26.2609 28.1043 26.9167 28.1043C27.5726 28.1043 28.1042 27.5726 28.1042 26.9168V17.4168C28.1042 16.761 27.5726 16.2293 26.9167 16.2293C26.2609 16.2293 25.7292 16.761 25.7292 17.4168V26.9168Z" fill="#2C6762"/>
</svg>
