<svg width="38" height="38" viewBox="0 0 38 38" fill="none" xmlns="http://www.w3.org/2000/svg">
<path d="M20.5831 23.7497C19.7087 23.7497 18.9998 24.4586 18.9998 25.333C18.9998 26.2075 19.7087 26.9164 20.5831 26.9164C21.4576 26.9164 22.1665 26.2075 22.1665 25.333C22.1665 24.4586 21.4576 23.7497 20.5831 23.7497Z" fill="#2C6762"/>
<path d="M15.8331 26.9164C14.9587 26.9164 14.2498 27.6252 14.2498 28.4997C14.2498 29.3741 14.9587 30.083 15.8331 30.083C16.7076 30.083 17.4165 29.3741 17.4165 28.4997C17.4165 27.6252 16.7076 26.9164 15.8331 26.9164Z" fill="#2C6762"/>
<path fill-rule="evenodd" clip-rule="evenodd" d="M22.9473 5.14552L22.9426 5.14551H15.057L15.0523 5.14552H13.4581C12.8023 5.14552 12.2706 5.67718 12.2706 6.33302C12.2706 6.98886 12.8023 7.52052 13.4581 7.52052H13.8695V15.5749C13.8695 17.8777 13.1769 20.1272 11.8818 22.0312L6.98327 29.2326C5.73932 31.0613 6.88602 33.5569 9.08387 33.8041C15.6737 34.5455 22.3259 34.5455 28.9158 33.8041C31.1136 33.5569 32.2603 31.0613 31.0163 29.2326L26.1178 22.0312C24.8227 20.1272 24.1301 17.8777 24.1301 15.5749V7.52052H24.5415C25.1973 7.52052 25.729 6.98886 25.729 6.33302C25.729 5.67718 25.1973 5.14552 24.5415 5.14552H22.9473ZM9.34938 31.444C15.7628 32.1655 22.2369 32.1655 28.6502 31.444C29.0712 31.3966 29.2909 30.9186 29.0526 30.5683L24.1541 23.367C23.8053 22.8543 23.4928 22.3208 23.2176 21.7705H14.782C14.5068 22.3208 14.1943 22.8543 13.8455 23.367L8.94702 30.5683C8.70875 30.9186 8.92839 31.3966 9.34938 31.444ZM15.7073 19.3955H22.2923C21.9379 18.1601 21.7551 16.8745 21.7551 15.5749V7.52051L16.2445 7.52052V15.5749C16.2445 16.8745 16.0617 18.1601 15.7073 19.3955Z" fill="#2C6762"/>
</svg>
