<svg width="38" height="38" viewBox="0 0 38 38" fill="none" xmlns="http://www.w3.org/2000/svg">
<path fill-rule="evenodd" clip-rule="evenodd" d="M18.3848 5.22789C18.7703 5.11817 19.177 5.11807 19.5624 5.22746C20.3819 5.46 21.2089 5.67569 22.0386 5.8921C25.9349 6.90829 29.892 7.94035 33.4125 10.8078L35.0338 12.1283C35.6914 12.6639 36.0204 13.4567 36.0207 14.2497V25.333C36.0207 25.9888 35.489 26.5205 34.8332 26.5205C34.1773 26.5205 33.6457 25.9888 33.6457 25.333V17.5061L33.3877 17.7166C32.1678 18.7121 30.895 19.485 29.5905 20.1125C29.6528 20.2568 29.6873 20.4159 29.6873 20.583V27.3817C29.6873 29.1761 28.5866 30.7867 26.9148 31.4385L20.5814 33.9076C19.5643 34.3042 18.4354 34.3042 17.4183 33.9076L11.0849 31.4385C9.4131 30.7867 8.31234 29.1761 8.31234 27.3817V20.583C8.31234 20.4116 8.34863 20.2488 8.41396 20.1016C7.09924 19.4704 5.81657 18.6929 4.58714 17.6916L2.9659 16.3711C1.65069 15.2999 1.65 13.1998 2.96407 12.1275L4.61197 10.7828C8.10708 7.93065 12.0362 6.90476 15.9037 5.89498C16.7352 5.67787 17.5639 5.4615 18.3848 5.22789ZM33.6457 14.2506C33.6456 14.108 33.588 14.0138 33.5339 13.9697L31.9127 12.6493C28.4998 10.2913 25.4588 9.2514 21.5963 8.23643C20.747 8.01325 19.8737 7.78375 18.9744 7.52935C18.0712 7.78559 17.1947 8.01619 16.3425 8.24037C12.511 9.24837 9.17245 10.1267 6.11353 12.6228L4.46563 13.9676C4.4115 14.0118 4.35395 14.1061 4.354 14.2487C4.35406 14.3914 4.41169 14.4856 4.46576 14.5296L6.087 15.8501C9.17184 18.3626 12.5409 19.248 16.4033 20.2629C17.2527 20.4861 18.1259 20.7156 19.0252 20.97C19.9284 20.7138 20.8049 20.4832 21.6569 20.259C25.4885 19.251 28.8272 18.3727 31.8861 15.8765L33.534 14.5318C33.5881 14.4876 33.6456 14.393 33.6457 14.2506ZM22.096 22.6044C23.8374 22.1497 25.5912 21.6918 27.3123 21.0653V27.3817C27.3123 28.1973 26.812 28.9294 26.0521 29.2257L19.7187 31.6948C19.2564 31.8751 18.7433 31.8751 18.2809 31.6948L11.9476 29.2257C11.1877 28.9294 10.6873 28.1974 10.6873 27.3817V21.0519C12.4271 21.6855 14.2003 22.148 15.9611 22.6073C16.7908 22.8237 17.6178 23.0393 18.4372 23.2719C18.8227 23.3813 19.2293 23.3812 19.6149 23.2715C20.4357 23.0379 21.2645 22.8215 22.096 22.6044Z" fill="#2C6762"/>
</svg>
