<svg width="38" height="38" fill="none" xmlns="http://www.w3.org/2000/svg"><path fill-rule="evenodd" clip-rule="evenodd" d="M19 9.896a5.146 5.146 0 100 10.292 5.146 5.146 0 000-10.292zm-2.77 5.146a2.77 2.77 0 115.541 0 2.77 2.77 0 01-5.542 0z" fill="#2C6762"/><path fill-rule="evenodd" clip-rule="evenodd" d="M19 3.563c-6.34 0-11.479 5.139-11.479 11.479 0 2.324.69 4.487 1.879 6.295l-4.095 7.092a1.187 1.187 0 001.258 1.759l4.138-.814 1.365 3.991a1.187 1.187 0 002.152.21l4.085-7.075a11.682 11.682 0 001.395 0l4.084 7.075a1.187 1.187 0 002.153-.212l1.358-4 4.142.824a1.187 1.187 0 001.26-1.758l-4.094-7.092a11.426 11.426 0 001.878-6.295c0-6.34-5.14-11.48-11.479-11.48zM9.896 15.041a9.104 9.104 0 1118.208 0 9.104 9.104 0 01-18.208 0zm5.912 11.03a11.467 11.467 0 01-4.793-2.783l-2.347 4.064 2.592-.51a1.19 1.19 0 011.353.782l.855 2.5 2.34-4.054zm8.72 4.046l-2.335-4.047a11.468 11.468 0 004.792-2.782l2.343 4.058-2.593-.516a1.188 1.188 0 00-1.356.783l-.85 2.504z" fill="#2C6762"/></svg>