<svg width="38" height="38" fill="none" xmlns="http://www.w3.org/2000/svg"><path d="M20.583 23.75a1.583 1.583 0 100 3.166 1.583 1.583 0 000-3.166zm-4.75 3.166a1.583 1.583 0 100 3.167 1.583 1.583 0 000-3.167z" fill="#2C6762"/><path fill-rule="evenodd" clip-rule="evenodd" d="M22.947 5.146h-9.489a1.188 1.188 0 000 2.375h.412v8.054a11.48 11.48 0 01-1.988 6.456l-4.899 7.202c-1.244 1.828-.097 4.324 2.1 4.571a88.75 88.75 0 0019.833 0c2.198-.247 3.344-2.743 2.1-4.571l-4.898-7.202a11.48 11.48 0 01-1.988-6.456V7.52h.412a1.188 1.188 0 000-2.375h-1.595zM9.35 31.444a86.323 86.323 0 0019.301 0 .563.563 0 00.403-.876l-4.899-7.201a13.856 13.856 0 01-.936-1.597h-8.436a13.86 13.86 0 01-.937 1.597l-4.898 7.201a.563.563 0 00.402.876zm6.358-12.049h6.585a13.855 13.855 0 01-.537-3.82V7.52h-5.51v8.054c0 1.3-.183 2.585-.538 3.82z" fill="#2C6762"/></svg>