<svg width="36" height="36" viewBox="0 0 36 36" fill="none" xmlns="http://www.w3.org/2000/svg">
<path d="M5.105 20.8459C7.73684 23.4624 12.3267 27.0891 17.5487 27.0891C22.7706 27.0891 27.3596 23.4624 29.9915 20.8459C30.6856 20.1559 31.0338 19.8097 31.2548 19.1322C31.4125 18.6488 31.4125 17.7813 31.2548 17.2979C31.0338 16.6203 30.6856 16.2741 29.9915 15.584C27.3596 12.9675 22.7706 9.34082 17.5487 9.34082C12.3267 9.34082 7.73684 12.9675 5.105 15.584C4.41036 16.2746 4.063 16.6201 3.8419 17.2979C3.68421 17.7813 3.68421 18.6488 3.8419 19.1322C4.063 19.81 4.41035 20.1554 5.105 20.8459Z" stroke="#171717" stroke-width="2" stroke-linecap="round" stroke-linejoin="round"/>
<path d="M14.5903 18.215C14.5903 19.8487 15.9147 21.1731 17.5484 21.1731C19.1821 21.1731 20.5065 19.8487 20.5065 18.215C20.5065 16.5813 19.1821 15.257 17.5484 15.257C15.9147 15.257 14.5903 16.5813 14.5903 18.215Z" stroke="#171717" stroke-width="2" stroke-linecap="round" stroke-linejoin="round"/>
</svg>
