<svg width="31" height="31" viewBox="0 0 31 31" fill="none" xmlns="http://www.w3.org/2000/svg">
<path d="M21.9398 24.8809C20.3434 23.098 18.0239 21.9761 15.4424 21.9761C12.8609 21.9761 10.5413 23.098 8.9449 24.8809M15.4424 26.9581C9.25158 26.9581 4.23291 21.9394 4.23291 15.7486C4.23291 9.55773 9.25158 4.53906 15.4424 4.53906C21.6333 4.53906 26.6519 9.55773 26.6519 15.7486C26.6519 21.9394 21.6333 26.9581 15.4424 26.9581ZM15.4424 18.2396C13.3788 18.2396 11.7059 16.5667 11.7059 14.5031C11.7059 12.4395 13.3788 10.7666 15.4424 10.7666C17.506 10.7666 19.1789 12.4395 19.1789 14.5031C19.1789 16.5667 17.506 18.2396 15.4424 18.2396Z" stroke="#171717" stroke-width="2" stroke-linecap="round" stroke-linejoin="round"/>
</svg>
