<svg width="24" height="20" fill="none" xmlns="http://www.w3.org/2000/svg"><path fill-rule="evenodd" clip-rule="evenodd" d="M11.68 0l8.485.24c1.5.042 2.74 1.18 2.91 2.67.378 3.3.378 6.63 0 9.93a3.015 3.015 0 01-2.91 2.67l-6.444.183v2.39h3.791a.875.875 0 110 1.75H5.846a.875.875 0 010-1.75h3.791v-2.39l-6.444-.182a3.015 3.015 0 01-2.91-2.671 43.672 43.672 0 010-9.93A3.015 3.015 0 013.193.24L11.68 0zm0 1.75l-8.437.24c-.63.017-1.15.495-1.221 1.12a41.923 41.923 0 000 9.53 1.265 1.265 0 001.22 1.121L11.68 14l8.437-.239a1.265 1.265 0 001.22-1.12 41.925 41.925 0 000-9.531 1.265 1.265 0 00-1.22-1.12l-8.437-.24z" fill="#fff"/></svg>