<svg width="560" height="320" viewBox="0 0 560 320" fill="none" xmlns="http://www.w3.org/2000/svg">
<g opacity="0.08">
<g clip-path="url(#clip0_78_313)">
<path d="M254.253 101.658H254.17L216.99 80.4444V38.0493H217.073L254.253 16.8518L291.416 38V80.4444L254.253 101.658ZM217.34 80.2799L254.253 101.28L291.166 80.2635V38.2302L254.253 17.2136L217.323 38.2302L217.34 80.2799Z" fill="#2C6762"/>
<path d="M328.397 101.658L291.167 80.4444V38.0493L328.397 16.8518H328.48L365.643 38V80.4444L328.397 101.658ZM291.483 80.2799L328.397 101.297L365.326 80.2635V38.2302L328.397 17.2136L291.483 38.2302V80.2799Z" fill="#2C6762"/>
<path d="M402.573 101.658H402.489L365.326 80.4444V38.0493H365.41L402.573 16.8518H402.656L439.803 38V80.4444L402.573 101.658ZM365.643 80.2799L402.573 101.297L439.486 80.2635V38.2302L402.573 17.2136L365.643 38.2302V80.2799Z" fill="#2C6762"/>
<path d="M476.733 101.658H476.65L439.486 80.4444V38.0493H439.57L476.733 16.8518H476.816L513.98 38V80.4444L476.733 101.658ZM439.803 80.2799L476.733 101.297L513.646 80.2635V38.2302L476.733 17.2136L439.803 38.2302V80.2799Z" fill="#2C6762"/>
<path d="M560 96.1L550.893 101.28L513.963 80.2799V38.2467L550.893 17.23L560 22.4102V22.032L550.976 16.9011L550.893 16.8518L513.729 38.0164L513.646 38.0493V80.4608L550.809 101.609L550.893 101.658L560 96.4782V96.1Z" fill="#2C6762"/>
<path d="M291.317 164.971H291.233L254.07 143.774V101.379H254.153L291.317 80.2306H291.4L328.563 101.379V143.774H328.48L291.317 164.971ZM254.403 143.593L291.317 164.61L328.246 143.593V101.56L291.317 80.543L254.403 101.56V143.593Z" fill="#2C6762"/>
<path d="M365.493 164.971H365.409L328.246 143.774V101.379H328.33L365.493 80.2306L402.706 101.379V143.774L365.493 164.971ZM328.563 143.593L365.493 164.61L402.406 143.593V101.56L365.493 80.543L328.563 101.56V143.593Z" fill="#2C6762"/>
<path d="M439.653 164.971L402.406 143.774V101.379H402.49L439.653 80.2306H439.736L476.9 101.379V143.774H476.816L439.653 164.971ZM402.706 143.593L439.636 164.61L476.549 143.593V101.56L439.653 80.543L402.706 101.56V143.593Z" fill="#2C6762"/>
<path d="M513.813 164.971H513.729L476.566 143.774V101.379H476.649L513.813 80.2306H513.896L551.059 101.379V143.774H550.976L513.813 164.971ZM476.9 143.593L513.813 164.61L550.742 143.593V101.56L513.813 80.543L476.9 101.56V143.593Z" fill="#2C6762"/>
<path d="M560 148.691L551.043 143.593V101.56L560 96.4782V96.1L550.809 101.329L550.726 101.379V143.774L560 149.053V148.691Z" fill="#2C6762"/>
<path d="M402.573 228.301H402.489L365.326 207.153V164.692H365.41L402.573 143.527H402.656L439.803 164.675V207.087L402.573 228.301ZM365.643 206.922L402.573 227.923L439.486 206.922V164.889L402.573 143.873L365.643 164.889V206.922Z" fill="#2C6762"/>
<path d="M476.733 228.301H476.65L439.486 207.153V164.692H439.57L476.733 143.527H476.816L513.98 164.675V207.087L476.733 228.301ZM439.803 206.922L476.733 227.923L513.646 206.922V164.889L476.733 143.872L439.803 164.889V206.922Z" fill="#2C6762"/>
<path d="M560 222.759L550.893 227.939L513.963 206.922V164.889L550.893 143.873L560 149.053V148.691L550.976 143.544L550.893 143.511L513.729 164.659L513.646 164.708V207.103L550.809 228.251L550.893 228.301L560 223.121V222.759Z" fill="#2C6762"/>
<path d="M439.653 291.614L402.489 270.449V228.104H402.573L439.736 206.955H439.819L476.899 228.104V270.499H476.816L439.653 291.614ZM402.723 270.235L439.653 291.252L476.566 270.235V228.202L439.653 207.186L402.706 228.202L402.723 270.235Z" fill="#2C6762"/>
<path d="M513.813 291.614H513.729L476.566 270.449V228.103H476.649L513.813 206.955H513.896L551.059 228.103V270.499H550.976L513.813 291.614ZM476.9 270.235L513.813 291.252L550.742 270.235V228.202L513.813 207.186L476.9 228.202V270.235Z" fill="#2C6762"/>
<path d="M560 275.333L551.043 270.235V228.202L560 223.121V222.759L550.809 227.972L550.726 228.021V270.416L560 275.695V275.333Z" fill="#2C6762"/>
<path d="M476.733 354.943H476.65L439.486 333.795V291.351H439.57L476.733 270.203H476.816L513.98 291.367V333.762L476.733 354.943ZM439.803 333.565L476.733 354.581L513.646 333.565V291.532L476.733 270.515L439.803 291.532V333.565Z" fill="#2C6762"/>
<path d="M560 349.401L550.893 354.581L513.963 333.565V291.532L550.893 270.515L560 275.695V275.333L550.976 270.186L550.893 270.153L513.729 291.301L513.646 291.351V333.746L550.809 354.894L550.893 354.943L560 349.763V349.401Z" fill="#2C6762"/>
<path d="M391.214 -51V-15.0349L343.725 12.0006L296.237 -15.0349V-51H294.552V-14.0811L343.725 13.9082L392.882 -14.0811V-51H391.214Z" fill="#2C6762"/>
<path d="M487.859 -51V-15.0349L440.37 12.0006L392.882 -15.0349V-51H391.214V-14.0811L440.37 13.9082L489.543 -14.0811V-51H487.859Z" fill="#2C6762"/>
<path d="M489.543 -15.0349V-51H487.858V-14.0811L537.031 13.9082L560 0.834446V-1.07317L537.031 12.0006L489.543 -15.0349Z" fill="#2C6762"/>
<path d="M392.048 96.4288L342.892 68.4725V12.5597L392.048 -15.3967L441.221 12.5597V68.4725L392.048 96.4288ZM344.56 67.4858L392.048 94.5212L439.536 67.4858V13.4312L392.048 -13.6371L344.56 13.4312V67.4858Z" fill="#2C6762"/>
<path d="M488.709 96.4288L439.536 68.4725V12.5597L488.709 -15.3967L537.815 12.4774V68.3902L488.709 96.4288ZM441.221 67.4858L488.709 94.5212L536.147 67.4858V13.4312L488.709 -13.6371L441.221 13.4312V67.4858Z" fill="#2C6762"/>
<path d="M560 80.0826L537.865 67.5022V13.4313L560 0.834431V-1.07318L536.197 12.4774V68.456L560 82.0066V80.0826Z" fill="#2C6762"/>
<path d="M440.387 178.966L391.214 151.01V95.0968L440.387 67.1404L489.543 95.0968V151.01L440.387 178.966ZM392.899 150.023L440.387 177.124L487.875 150.089V95.952L440.387 68.9329L392.899 95.952V150.023Z" fill="#2C6762"/>
<path d="M560 163.985L537.031 177.058L489.543 150.023V95.952L537.031 68.9329L560 82.0067V80.0826L537.031 67.0253L487.858 94.9982V150.977L537.031 178.966L560 165.892V163.985Z" fill="#2C6762"/>
<path d="M5.41902 261.487L-43.7373 233.53V177.618L5.41902 149.661L54.592 177.618V233.53L5.41902 261.487ZM-42.0693 232.544L5.41902 259.579L52.924 232.544V178.489L5.41902 151.454L-42.0693 178.489V232.544Z" fill="#2C6762"/>
<path d="M560 245.14L537.865 232.544V178.489L560 165.892V163.985L536.197 177.535V233.497L560 247.048V245.14Z" fill="#2C6762"/>
<path d="M-42.9032 344.007L-92.0762 316.051V260.138L-42.9032 232.182L6.26984 260.138V316.051L-42.9032 344.007ZM-90.3915 315.081L-42.9032 342.1L4.58514 315.081V260.993L-42.9032 233.974L-90.3915 260.993V315.081Z" fill="#2C6762"/>
<path d="M53.758 344.007L4.58496 316.051V260.138L53.758 232.182L102.931 260.138V316.051L53.758 344.007ZM6.26966 315.081L53.758 342.1L101.246 315.081V260.993L53.758 233.974L6.26966 260.993V315.081Z" fill="#2C6762"/>
<path d="M5.41902 426.545L-43.7373 398.588V342.675L5.41902 314.719L54.592 342.675V398.588L5.41902 426.545ZM-42.0693 397.601L5.41902 424.637L52.924 397.601V343.531L5.41902 316.511L-42.0693 343.531V397.601Z" fill="#2C6762"/>
<path d="M488.709 426.545L439.536 398.588V342.675L488.709 314.719L537.882 342.675V398.588L488.709 426.545ZM441.221 397.601L488.709 424.637L536.147 397.601V343.531L488.659 316.511L441.171 343.531L441.221 397.601Z" fill="#2C6762"/>
<path d="M180.077 17.4767C180.166 17.4767 180.253 17.4507 180.327 17.4019C180.401 17.3531 180.459 17.2837 180.493 17.2026C180.527 17.1215 180.536 17.0322 180.519 16.9461C180.501 16.8599 180.458 16.7808 180.395 16.7187C180.332 16.6566 180.252 16.6143 180.165 16.5972C180.077 16.5801 179.987 16.5889 179.905 16.6225C179.822 16.6561 179.752 16.713 179.702 16.786C179.653 16.859 179.626 16.9449 179.626 17.0327C179.626 17.1505 179.674 17.2634 179.758 17.3467C179.843 17.4299 179.957 17.4767 180.077 17.4767Z" fill="#2C6762"/>
<path d="M217.157 33.0994C216.144 33.0994 215.154 33.3955 214.312 33.9503C213.47 34.505 212.814 35.2935 212.426 36.216C212.038 37.1385 211.937 38.1536 212.135 39.133C212.332 40.1123 212.82 41.0119 213.536 41.7179C214.252 42.424 215.165 42.9048 216.158 43.0996C217.151 43.2944 218.181 43.1944 219.117 42.8123C220.052 42.4302 220.852 41.7831 221.415 40.9529C221.977 40.1226 222.278 39.1465 222.278 38.148C222.273 36.8104 221.732 35.5288 220.773 34.5829C219.814 33.6371 218.514 33.1038 217.157 33.0994Z" fill="#2C6762"/>
<path d="M217.157 83.5196C217.79 83.5196 218.409 83.3344 218.936 82.9874C219.463 82.6405 219.873 82.1474 220.115 81.5704C220.358 80.9935 220.421 80.3586 220.298 79.7462C220.174 79.1337 219.869 78.5711 219.421 78.1295C218.973 77.6879 218.403 77.3872 217.781 77.2654C217.16 77.1436 216.516 77.2061 215.931 77.4451C215.346 77.684 214.846 78.0887 214.494 78.608C214.142 79.1272 213.954 79.7377 213.954 80.3621C213.954 80.7768 214.037 81.1874 214.198 81.5704C214.359 81.9535 214.595 82.3016 214.892 82.5948C215.19 82.888 215.543 83.1205 215.931 83.2792C216.32 83.4379 216.736 83.5196 217.157 83.5196Z" fill="#2C6762"/>
<path d="M254.253 104.306C254.824 104.303 255.381 104.133 255.854 103.817C256.327 103.502 256.694 103.056 256.909 102.535C257.124 102.013 257.178 101.441 257.064 100.89C256.949 100.339 256.671 99.8333 256.265 99.4378C255.86 99.0422 255.344 98.7742 254.783 98.6676C254.223 98.561 253.643 98.6207 253.117 98.839C252.591 99.0573 252.143 99.4245 251.828 99.8942C251.514 100.364 251.348 100.915 251.351 101.477C251.353 101.851 251.43 102.221 251.577 102.565C251.724 102.909 251.939 103.222 252.208 103.484C252.478 103.747 252.797 103.955 253.148 104.096C253.499 104.237 253.875 104.308 254.253 104.306Z" fill="#2C6762"/>
<path d="M254.236 18.4963C255.056 18.4963 255.721 17.841 255.721 17.0327C255.721 16.2244 255.056 15.5691 254.236 15.5691C253.417 15.5691 252.752 16.2244 252.752 17.0327C252.752 17.841 253.417 18.4963 254.236 18.4963Z" fill="#2C6762"/>
<path d="M291.317 41.0423C291.897 41.0423 292.465 40.8726 292.948 40.5546C293.43 40.2365 293.807 39.7845 294.029 39.2556C294.251 38.7268 294.309 38.1448 294.196 37.5834C294.083 37.0219 293.803 36.5062 293.392 36.1014C292.982 35.6967 292.459 35.421 291.889 35.3093C291.32 35.1977 290.73 35.255 290.193 35.474C289.657 35.6931 289.198 36.0641 288.876 36.54C288.553 37.016 288.381 37.5756 288.381 38.148C288.381 38.9157 288.69 39.6518 289.241 40.1946C289.791 40.7374 290.538 41.0423 291.317 41.0423Z" fill="#2C6762"/>
<path d="M291.317 75.2807C290.297 75.2807 289.301 75.5787 288.453 76.1371C287.606 76.6954 286.945 77.4891 286.555 78.4176C286.165 79.3461 286.063 80.3678 286.262 81.3535C286.461 82.3392 286.951 83.2447 287.672 83.9553C288.393 84.666 289.311 85.15 290.311 85.346C291.311 85.5421 292.347 85.4415 293.289 85.0569C294.231 84.6723 295.036 84.021 295.602 83.1853C296.169 82.3497 296.471 81.3672 296.471 80.3622C296.471 79.0145 295.928 77.722 294.961 76.769C293.995 75.8161 292.684 75.2807 291.317 75.2807Z" fill="#2C6762"/>
<path d="M328.396 19.2528C328.825 19.2528 329.245 19.1274 329.601 18.8925C329.958 18.6576 330.236 18.3237 330.4 17.9331C330.564 17.5424 330.607 17.1126 330.523 16.6979C330.44 16.2832 330.233 15.9023 329.93 15.6033C329.626 15.3043 329.24 15.1007 328.819 15.0182C328.399 14.9357 327.963 14.978 327.567 15.1398C327.17 15.3017 326.832 15.5757 326.593 15.9272C326.355 16.2788 326.228 16.6921 326.228 17.115C326.232 17.6806 326.462 18.2219 326.868 18.6219C327.274 19.0219 327.823 19.2485 328.396 19.2528Z" fill="#2C6762"/>
<path d="M365.493 42.0948C366.285 42.0948 367.059 41.8633 367.717 41.4296C368.375 40.996 368.888 40.3796 369.191 39.6584C369.494 38.9372 369.574 38.1436 369.419 37.378C369.265 36.6124 368.884 35.9092 368.324 35.3572C367.764 34.8053 367.05 34.4294 366.274 34.2771C365.497 34.1248 364.692 34.2029 363.961 34.5017C363.229 34.8004 362.604 35.3063 362.164 35.9553C361.724 36.6043 361.49 37.3674 361.49 38.148C361.49 39.1948 361.912 40.1986 362.662 40.9388C363.413 41.679 364.431 42.0948 365.493 42.0948Z" fill="#2C6762"/>
<path d="M365.477 85.0654C368.111 85.0654 370.247 82.9597 370.247 80.3621C370.247 77.7646 368.111 75.6589 365.477 75.6589C362.842 75.6589 360.706 77.7646 360.706 80.3621C360.706 82.9597 362.842 85.0654 365.477 85.0654Z" fill="#2C6762"/>
<path d="M402.573 19.4995C403.068 19.4995 403.551 19.3548 403.963 19.0837C404.374 18.8127 404.695 18.4274 404.884 17.9767C405.074 17.526 405.123 17.03 405.027 16.5515C404.93 16.073 404.692 15.6335 404.342 15.2885C403.992 14.9435 403.546 14.7086 403.061 14.6134C402.576 14.5182 402.073 14.567 401.615 14.7537C401.158 14.9405 400.767 15.2566 400.492 15.6623C400.218 16.0679 400.071 16.5448 400.071 17.0327C400.071 17.6869 400.334 18.3144 400.804 18.777C401.273 19.2396 401.909 19.4995 402.573 19.4995Z" fill="#2C6762"/>
<path d="M439.653 40.9765C440.22 40.9765 440.775 40.8106 441.247 40.4998C441.718 40.189 442.086 39.7473 442.303 39.2304C442.52 38.7136 442.577 38.1448 442.467 37.5962C442.356 37.0475 442.083 36.5435 441.681 36.1479C441.28 35.7523 440.769 35.4829 440.212 35.3738C439.656 35.2647 439.079 35.3207 438.555 35.5348C438.031 35.7489 437.582 36.1114 437.267 36.5765C436.952 37.0417 436.784 37.5886 436.784 38.148C436.784 38.5194 436.858 38.8872 437.002 39.2304C437.146 39.5736 437.358 39.8854 437.624 40.1481C437.89 40.4107 438.207 40.6191 438.555 40.7612C438.903 40.9034 439.276 40.9765 439.653 40.9765Z" fill="#2C6762"/>
<path d="M439.636 82.3849C440.769 82.3849 441.688 81.4793 441.688 80.3621C441.688 79.245 440.769 78.3394 439.636 78.3394C438.503 78.3394 437.584 79.245 437.584 80.3621C437.584 81.4793 438.503 82.3849 439.636 82.3849Z" fill="#2C6762"/>
<path d="M476.733 18.9403C477.115 18.9403 477.49 18.8285 477.808 18.6189C478.126 18.4092 478.374 18.1113 478.52 17.7627C478.667 17.4142 478.705 17.0306 478.63 16.6606C478.556 16.2905 478.372 15.9506 478.101 15.6839C477.83 15.4171 477.486 15.2354 477.11 15.1618C476.735 15.0882 476.346 15.1259 475.992 15.2703C475.639 15.4147 475.337 15.6592 475.124 15.9729C474.911 16.2866 474.798 16.6554 474.798 17.0327C474.798 17.5387 475.002 18.0239 475.365 18.3816C475.727 18.7394 476.22 18.9403 476.733 18.9403Z" fill="#2C6762"/>
<path d="M513.813 41.141C514.413 41.141 515 40.9655 515.499 40.6366C515.998 40.3077 516.388 39.8403 516.617 39.2934C516.847 38.7465 516.907 38.1447 516.79 37.5641C516.673 36.9835 516.384 36.4502 515.959 36.0317C515.535 35.6131 514.994 35.328 514.405 35.2125C513.816 35.0971 513.206 35.1563 512.651 35.3829C512.096 35.6094 511.622 35.993 511.288 36.4852C510.955 36.9774 510.777 37.5561 510.777 38.148C510.777 38.9418 511.097 39.7031 511.666 40.2644C512.235 40.8257 513.007 41.141 513.813 41.141Z" fill="#2C6762"/>
<path d="M513.813 83.7663C515.72 83.7663 517.265 82.2422 517.265 80.3622C517.265 78.4821 515.72 76.9581 513.813 76.9581C511.906 76.9581 510.36 78.4821 510.36 80.3622C510.36 82.2422 511.906 83.7663 513.813 83.7663Z" fill="#2C6762"/>
<path d="M550.893 19.8941C551.467 19.8941 552.028 19.7263 552.505 19.4119C552.982 19.0975 553.354 18.6506 553.574 18.1277C553.794 17.6048 553.851 17.0295 553.739 16.4745C553.627 15.9194 553.351 15.4095 552.945 15.0094C552.539 14.6092 552.022 14.3367 551.459 14.2262C550.896 14.1158 550.312 14.1725 549.782 14.3891C549.252 14.6057 548.798 14.9724 548.479 15.443C548.16 15.9135 547.99 16.4667 547.99 17.0327C547.99 17.4085 548.065 17.7805 548.211 18.1277C548.357 18.4749 548.571 18.7903 548.84 19.056C549.11 19.3217 549.43 19.5325 549.782 19.6763C550.134 19.8201 550.511 19.8941 550.893 19.8941Z" fill="#2C6762"/>
<path d="M254.253 147.523C255.018 147.523 255.767 147.3 256.403 146.88C257.039 146.461 257.535 145.865 257.828 145.168C258.121 144.471 258.198 143.704 258.049 142.964C257.899 142.224 257.531 141.544 256.989 141.01C256.448 140.477 255.759 140.113 255.008 139.966C254.257 139.819 253.479 139.894 252.772 140.183C252.065 140.472 251.461 140.961 251.035 141.588C250.61 142.216 250.383 142.953 250.383 143.708C250.383 144.72 250.791 145.69 251.517 146.406C252.242 147.121 253.227 147.523 254.253 147.523Z" fill="#2C6762"/>
<path d="M328.397 99.5205C328.004 99.5205 327.62 99.6353 327.294 99.8503C326.967 100.065 326.713 100.371 326.563 100.729C326.412 101.086 326.373 101.48 326.45 101.859C326.526 102.239 326.715 102.588 326.993 102.861C327.271 103.135 327.624 103.321 328.009 103.397C328.394 103.472 328.793 103.434 329.156 103.285C329.519 103.137 329.829 102.887 330.047 102.565C330.265 102.243 330.382 101.865 330.382 101.477C330.384 101.22 330.334 100.964 330.235 100.726C330.136 100.488 329.99 100.271 329.805 100.089C329.62 99.9066 329.401 99.7626 329.159 99.665C328.917 99.5674 328.658 99.5183 328.397 99.5205Z" fill="#2C6762"/>
<path d="M328.396 147.293C329.122 147.293 329.831 147.081 330.435 146.683C331.038 146.286 331.509 145.721 331.787 145.06C332.064 144.399 332.137 143.671 331.995 142.969C331.854 142.268 331.504 141.623 330.991 141.117C330.478 140.611 329.824 140.266 329.112 140.127C328.4 139.987 327.662 140.059 326.992 140.333C326.321 140.607 325.748 141.07 325.345 141.665C324.942 142.26 324.727 142.96 324.727 143.675C324.724 144.151 324.818 144.622 325.001 145.062C325.185 145.502 325.455 145.902 325.796 146.238C326.138 146.575 326.543 146.841 326.989 147.022C327.436 147.203 327.914 147.295 328.396 147.293Z" fill="#2C6762"/>
<path d="M365.476 167.076C366.757 167.076 367.795 166.053 367.795 164.79C367.795 163.528 366.757 162.505 365.476 162.505C364.196 162.505 363.158 163.528 363.158 164.79C363.158 166.053 364.196 167.076 365.476 167.076Z" fill="#2C6762"/>
<path d="M402.573 96.1328C401.501 96.1328 400.453 96.4463 399.561 97.0336C398.67 97.6208 397.975 98.4556 397.565 99.4322C397.154 100.409 397.047 101.483 397.256 102.52C397.465 103.557 397.982 104.509 398.74 105.257C399.498 106.004 400.464 106.513 401.515 106.719C402.567 106.926 403.657 106.82 404.647 106.415C405.638 106.011 406.485 105.326 407.08 104.447C407.676 103.568 407.994 102.535 407.994 101.477C407.996 100.775 407.857 100.079 407.586 99.4296C407.314 98.7802 406.915 98.1901 406.411 97.6934C405.907 97.1967 405.309 96.8031 404.65 96.5352C403.991 96.2674 403.285 96.1307 402.573 96.1328Z" fill="#2C6762"/>
<path d="M476.733 105.424C477.53 105.434 478.313 105.21 478.981 104.779C479.649 104.349 480.172 103.733 480.484 103.008C480.795 102.284 480.881 101.485 480.73 100.712C480.579 99.94 480.199 99.2292 479.637 98.6707C479.075 98.1121 478.357 97.731 477.575 97.5759C476.793 97.4208 475.982 97.4987 475.244 97.7997C474.507 98.1007 473.878 98.6112 473.436 99.2661C472.994 99.9211 472.759 100.691 472.763 101.477C472.763 102.519 473.18 103.517 473.923 104.257C474.667 104.996 475.677 105.416 476.733 105.424Z" fill="#2C6762"/>
<path d="M513.813 168.737C514.605 168.737 515.379 168.506 516.037 168.072C516.695 167.638 517.208 167.022 517.511 166.301C517.814 165.58 517.894 164.786 517.739 164.02C517.585 163.255 517.203 162.552 516.644 162C516.084 161.448 515.37 161.072 514.594 160.92C513.817 160.767 513.012 160.845 512.281 161.144C511.549 161.443 510.924 161.949 510.484 162.598C510.044 163.247 509.81 164.01 509.81 164.79C509.807 165.309 509.909 165.824 510.11 166.303C510.31 166.783 510.605 167.219 510.977 167.586C511.349 167.953 511.792 168.244 512.278 168.441C512.765 168.639 513.286 168.739 513.813 168.737Z" fill="#2C6762"/>
<path d="M476.733 148.346C477.67 148.349 478.588 148.078 479.369 147.566C480.15 147.055 480.76 146.327 481.121 145.474C481.482 144.621 481.578 143.681 481.398 142.774C481.217 141.867 480.767 141.033 480.105 140.379C479.443 139.724 478.599 139.277 477.68 139.096C476.76 138.914 475.807 139.006 474.94 139.359C474.074 139.712 473.333 140.31 472.812 141.079C472.29 141.847 472.012 142.751 472.012 143.675C472.012 144.911 472.509 146.096 473.394 146.972C474.279 147.847 475.479 148.341 476.733 148.346Z" fill="#2C6762"/>
<path d="M550.893 105.704C551.745 105.707 552.58 105.461 553.29 104.996C554 104.531 554.554 103.868 554.882 103.092C555.21 102.316 555.297 101.462 555.131 100.637C554.966 99.8128 554.555 99.0553 553.952 98.461C553.35 97.8666 552.581 97.4622 551.745 97.299C550.909 97.1358 550.042 97.2212 549.255 97.5444C548.468 97.8675 547.796 98.4139 547.324 99.1141C546.853 99.8144 546.603 100.637 546.606 101.477C546.61 102.597 547.063 103.67 547.866 104.461C548.669 105.253 549.757 105.699 550.893 105.704Z" fill="#2C6762"/>
<path d="M294.402 164.79C294.402 164.189 294.221 163.601 293.882 163.1C293.543 162.6 293.061 162.21 292.497 161.98C291.933 161.749 291.313 161.689 290.714 161.807C290.116 161.924 289.566 162.214 289.134 162.639C288.703 163.065 288.409 163.607 288.29 164.197C288.171 164.787 288.232 165.399 288.465 165.955C288.699 166.511 289.094 166.986 289.602 167.32C290.109 167.654 290.706 167.833 291.316 167.833C292.135 167.833 292.92 167.512 293.498 166.942C294.077 166.371 294.402 165.597 294.402 164.79Z" fill="#2C6762"/>
<path d="M402.556 146.142C403.929 146.142 405.041 145.045 405.041 143.692C405.041 142.338 403.929 141.241 402.556 141.241C401.184 141.241 400.071 142.338 400.071 143.692C400.071 145.045 401.184 146.142 402.556 146.142Z" fill="#2C6762"/>
<path d="M439.653 167.422C440.181 167.422 440.697 167.267 441.135 166.978C441.574 166.689 441.916 166.278 442.118 165.797C442.32 165.317 442.373 164.788 442.27 164.277C442.167 163.767 441.913 163.298 441.54 162.93C441.167 162.562 440.691 162.311 440.173 162.21C439.656 162.108 439.119 162.16 438.631 162.36C438.144 162.559 437.727 162.896 437.434 163.329C437.14 163.761 436.984 164.27 436.984 164.79C436.984 165.488 437.265 166.158 437.766 166.651C438.266 167.144 438.945 167.422 439.653 167.422Z" fill="#2C6762"/>
<path d="M550.893 230.718C552.348 230.718 553.528 229.555 553.528 228.12C553.528 226.685 552.348 225.522 550.893 225.522C549.437 225.522 548.257 226.685 548.257 228.12C548.257 229.555 549.437 230.718 550.893 230.718Z" fill="#2C6762"/>
<path d="M513.813 203.617C513.133 203.617 512.469 203.816 511.904 204.188C511.339 204.56 510.898 205.089 510.638 205.708C510.378 206.327 510.31 207.008 510.442 207.665C510.575 208.323 510.902 208.926 511.383 209.4C511.863 209.874 512.476 210.196 513.142 210.327C513.809 210.458 514.5 210.391 515.128 210.134C515.755 209.878 516.292 209.444 516.67 208.887C517.047 208.33 517.249 207.675 517.249 207.005C517.249 206.106 516.887 205.244 516.242 204.609C515.598 203.974 514.724 203.617 513.813 203.617Z" fill="#2C6762"/>
<path d="M550.892 146.931C552.707 146.931 554.178 145.481 554.178 143.692C554.178 141.902 552.707 140.452 550.892 140.452C549.078 140.452 547.606 141.902 547.606 143.692C547.606 145.481 549.078 146.931 550.892 146.931Z" fill="#2C6762"/>
<path d="M365.493 203.091C364.707 203.087 363.938 203.314 363.283 203.742C362.628 204.17 362.116 204.781 361.813 205.495C361.51 206.21 361.429 206.998 361.581 207.758C361.732 208.518 362.109 209.217 362.663 209.766C363.218 210.315 363.925 210.69 364.696 210.842C365.466 210.994 366.265 210.918 366.992 210.622C367.718 210.326 368.339 209.825 368.776 209.181C369.213 208.537 369.446 207.779 369.446 207.005C369.446 205.969 369.03 204.976 368.289 204.243C367.548 203.509 366.543 203.095 365.493 203.091Z" fill="#2C6762"/>
<path d="M398.453 228.103C398.453 228.907 398.695 229.692 399.147 230.36C399.6 231.028 400.244 231.549 400.996 231.856C401.749 232.164 402.578 232.244 403.377 232.087C404.176 231.931 404.91 231.544 405.486 230.976C406.063 230.408 406.455 229.684 406.614 228.896C406.773 228.108 406.691 227.291 406.38 226.549C406.068 225.807 405.54 225.172 404.862 224.726C404.185 224.28 403.388 224.042 402.573 224.042C402.031 224.039 401.495 224.143 400.994 224.346C400.493 224.55 400.038 224.849 399.655 225.226C399.272 225.604 398.969 226.053 398.762 226.546C398.556 227.04 398.451 227.569 398.453 228.103Z" fill="#2C6762"/>
<path d="M439.636 293.883C441.009 293.883 442.122 292.786 442.122 291.433C442.122 290.08 441.009 288.983 439.636 288.983C438.264 288.983 437.151 290.08 437.151 291.433C437.151 292.786 438.264 293.883 439.636 293.883Z" fill="#2C6762"/>
<path d="M402.556 273.524C404.343 273.524 405.792 272.096 405.792 270.334C405.792 268.572 404.343 267.144 402.556 267.144C400.769 267.144 399.32 268.572 399.32 270.334C399.32 272.096 400.769 273.524 402.556 273.524Z" fill="#2C6762"/>
<path d="M439.636 210.409C441.543 210.409 443.089 208.885 443.089 207.005C443.089 205.125 441.543 203.601 439.636 203.601C437.729 203.601 436.184 205.125 436.184 207.005C436.184 208.885 437.729 210.409 439.636 210.409Z" fill="#2C6762"/>
<path d="M476.733 275.169C479.441 275.169 481.637 273.004 481.637 270.334C481.637 267.664 479.441 265.499 476.733 265.499C474.024 265.499 471.829 267.664 471.829 270.334C471.829 273.004 474.024 275.169 476.733 275.169Z" fill="#2C6762"/>
<path d="M513.813 294.163C514.36 294.163 514.896 294.003 515.351 293.703C515.807 293.403 516.161 292.976 516.371 292.478C516.581 291.979 516.635 291.43 516.529 290.9C516.422 290.371 516.158 289.884 515.771 289.503C515.383 289.121 514.89 288.861 514.353 288.756C513.816 288.65 513.259 288.704 512.753 288.911C512.247 289.118 511.815 289.467 511.511 289.916C511.206 290.365 511.044 290.893 511.044 291.433C511.044 292.157 511.336 292.851 511.855 293.363C512.374 293.875 513.078 294.163 513.813 294.163Z" fill="#2C6762"/>
<path d="M476.733 232.905C477.698 232.909 478.642 232.629 479.445 232.103C480.249 231.577 480.875 230.827 481.246 229.949C481.617 229.071 481.715 228.104 481.527 227.171C481.34 226.238 480.876 225.381 480.194 224.708C479.511 224.035 478.642 223.578 477.696 223.393C476.749 223.208 475.769 223.305 474.878 223.67C473.987 224.036 473.227 224.654 472.693 225.446C472.159 226.238 471.876 227.169 471.879 228.12C471.879 229.389 472.39 230.606 473.301 231.504C474.211 232.401 475.446 232.905 476.733 232.905Z" fill="#2C6762"/>
<path d="M550.893 272.505C552.109 272.505 553.094 271.533 553.094 270.334C553.094 269.135 552.109 268.163 550.893 268.163C549.677 268.163 548.691 269.135 548.691 270.334C548.691 271.533 549.677 272.505 550.893 272.505Z" fill="#2C6762"/>
<path d="M295.754 -51V-6.33555L250.701 19.3186L205.631 -6.33555V-51H205.23V-6.10532L250.6 19.7132L250.701 19.7626L296.054 -6.05598L296.154 -6.10532V-51H295.754Z" fill="#2C6762"/>
<path d="M386.276 -51V-6.33555L341.223 19.3186L296.154 -6.33555V-51H295.753V-6.10532L341.123 19.7132L341.223 19.7626L386.577 -6.05598L386.677 -6.10532V-51H386.276Z" fill="#2C6762"/>
<path d="M476.799 -51V-6.33555L431.73 19.3186L386.677 -6.33555V-51H386.276V-6.10532L431.646 19.7132L431.73 19.7626L477.1 -6.05598L477.2 -6.10532V-51H476.799Z" fill="#2C6762"/>
<path d="M477.2 -6.33555V-51H476.8V-6.10532L522.153 19.7132L522.253 19.7626L550.91 3.44919V3.00518L522.253 19.3186L477.2 -6.33555Z" fill="#2C6762"/>
<path d="M386.476 97.0538L340.99 71.1694V19.4337H341.09L386.443 -6.38489H386.543L431.913 19.4337V71.1694H431.813L386.476 97.0538ZM341.44 70.9557L386.476 96.6098L431.513 70.9557V19.6474L386.476 -6.00665L341.44 19.6474V70.9557Z" fill="#2C6762"/>
<path d="M477 97.0538H476.9L431.546 71.2352V19.4337H431.646L477 -6.38489H477.1L522.453 19.4337V71.1694H522.37L477 97.0538ZM431.963 70.9557L477 96.6098L522.036 70.9557V19.6474L477 -6.00665L431.963 19.6474V70.9557Z" fill="#2C6762"/>
<path d="M550.909 87.1539L522.453 70.9557V19.6475L550.909 3.4492V3.00519L522.153 19.3679L522.053 19.4337V71.1859L550.909 87.5979V87.1539Z" fill="#2C6762"/>
<path d="M431.746 174.345H431.646L386.293 148.526V96.7084H386.393L431.746 70.8899H431.846L477.2 96.7084V148.461H477.1L431.746 174.345ZM386.71 148.247L431.746 173.885L476.783 148.247V96.9387L431.746 71.2846L386.71 96.9387V148.247Z" fill="#2C6762"/>
<path d="M550.91 157.588L522.253 173.885L477.2 148.247V96.9387L522.253 71.2846L550.91 87.598V87.154L522.353 70.8899L522.253 70.8406L476.9 96.6591L476.8 96.7085V148.461L522.153 174.279L522.253 174.345L550.91 158.032V157.588Z" fill="#2C6762"/>
<path d="M477 251.62H476.9L431.546 225.801V174H431.646L477 148.181H477.1L522.453 174V225.752H522.37L477 251.62ZM431.963 225.522L477 251.176L522.036 225.522V174.23L477 148.576L431.963 174.23V225.522Z" fill="#2C6762"/>
<path d="M550.909 241.72L522.453 225.538V174.23L550.909 158.032V157.588L522.153 173.95L522.053 174V225.752L550.909 242.18V241.72Z" fill="#2C6762"/>
<path d="M-20.8688 328.911L-66.2388 303.092V251.291H-66.1387L-20.7854 225.472H-20.6854L24.6846 251.291V303.043H24.5845L-20.8688 328.911ZM-65.9052 302.813L-20.8688 328.467L24.1675 302.813V251.521L-20.8688 225.867L-65.9052 251.521V302.813Z" fill="#2C6762"/>
<path d="M69.6545 328.911H69.5544L24.2012 303.092V251.291H24.3012L69.6545 225.472H69.7546L115.125 251.291V303.043H115.024L69.6545 328.911ZM24.6182 302.813L69.6545 328.467L114.691 302.813V251.521L69.6545 225.867L24.6182 251.521V302.813Z" fill="#2C6762"/>
<path d="M24.4012 406.202H24.3011L-20.9688 380.334V328.582H-20.8687L24.4846 302.763H24.5847L69.9379 328.582V380.334H69.8378L24.4012 406.202ZM-20.6352 380.104L24.4012 405.758L69.4375 380.104V328.796L24.4012 303.158L-20.6352 328.796V380.104Z" fill="#2C6762"/>
<path d="M490.594 -51V1.50869L432.63 34.4972L374.667 1.50869V-51H372.615V2.67628L432.63 36.8324L492.645 2.67628V-51H490.594Z" fill="#2C6762"/>
<path d="M492.645 1.50869V-51H490.594V2.67628L550.609 36.8324L550.909 36.668V34.3328L550.609 34.4972L492.645 1.50869Z" fill="#2C6762"/>
<path d="M550.91 34.3328L549.575 35.0892V103.401L550.91 104.158V34.3328Z" fill="#2C6762"/>
<path d="M-39.3168 238.283L-99.3652 204.127V135.814L-39.3168 101.658L20.7317 135.814V204.127L-39.3168 238.283ZM-97.2135 202.959L-39.3168 235.964L18.6466 202.959V136.982L-39.3168 103.977L-97.2135 136.982V202.959Z" fill="#2C6762"/>
<path d="M550.909 236.129L491.628 202.384L431.58 236.54V304.852L491.628 339.008L550.909 305.263V236.129ZM491.628 336.64L433.665 303.75V237.707L491.628 204.719L549.591 237.707V303.75L491.628 336.64Z" fill="#2C6762"/>
<path d="M-39.3168 439.75L-99.3652 405.577V337.265L-39.3168 303.109L20.7317 337.265V405.577L-39.3168 439.75ZM-97.2135 404.426L-39.3168 437.415L18.6466 404.426V338.433L-39.3168 305.395L-97.2135 338.433V404.426Z" fill="#2C6762"/>
<path d="M432.63 439.75L372.582 405.577V337.265L432.63 303.109L492.679 337.265V405.577L432.63 439.75ZM374.684 404.426L432.63 437.415L490.594 404.426V338.433L432.63 305.395L374.684 338.433V404.426Z" fill="#2C6762"/>
<path d="M550.909 437.234L550.609 437.415L492.645 404.426V338.433L550.609 305.444L550.909 305.608V303.29L550.609 303.109L490.594 337.265V405.577L550.609 439.75L550.909 439.569V437.234Z" fill="#2C6762"/>
<path d="M341.223 22.3116C342.78 22.3116 344.042 21.0673 344.042 19.5324C344.042 17.9975 342.78 16.7532 341.223 16.7532C339.666 16.7532 338.404 17.9975 338.404 19.5324C338.404 21.0673 339.666 22.3116 341.223 22.3116Z" fill="#2C6762"/>
<path d="M522.27 24.3507C523.236 24.3507 524.181 24.0681 524.985 23.5387C525.789 23.0092 526.415 22.2567 526.785 21.3763C527.155 20.4958 527.252 19.527 527.063 18.5923C526.874 17.6577 526.409 16.7991 525.725 16.1253C525.042 15.4514 524.171 14.9925 523.223 14.8066C522.275 14.6207 521.292 14.7161 520.399 15.0808C519.506 15.4455 518.743 16.063 518.206 16.8554C517.669 17.6478 517.382 18.5794 517.382 19.5324C517.382 20.8103 517.897 22.0358 518.814 22.9395C519.73 23.8431 520.973 24.3507 522.27 24.3507Z" fill="#2C6762"/>
<path d="M254.453 19.5323C254.45 18.8012 254.227 18.0874 253.813 17.4811C253.398 16.8748 252.811 16.4031 252.125 16.1256C251.439 15.8481 250.685 15.7771 249.958 15.9217C249.231 16.0664 248.564 16.4201 248.041 16.9382C247.517 17.4563 247.162 18.1156 247.018 18.8329C246.875 19.5502 246.95 20.2933 247.235 20.9685C247.519 21.6436 248 22.2205 248.617 22.6264C249.234 23.0322 249.959 23.2488 250.7 23.2489C251.194 23.2489 251.684 23.1526 252.14 22.9656C252.597 22.7787 253.011 22.5046 253.36 22.1593C253.709 21.814 253.985 21.4041 254.172 20.9533C254.36 20.5025 254.455 20.0196 254.453 19.5323Z" fill="#2C6762"/>
<path d="M431.73 22.7391C433.526 22.7391 434.982 21.3034 434.982 19.5323C434.982 17.7613 433.526 16.3256 431.73 16.3256C429.933 16.3256 428.477 17.7613 428.477 19.5323C428.477 21.3034 429.933 22.7391 431.73 22.7391Z" fill="#2C6762"/>
<path d="M522.269 66.9431C521.437 66.9398 520.623 67.1801 519.93 67.6335C519.236 68.0869 518.695 68.7329 518.374 69.4899C518.053 70.2468 517.968 71.0806 518.128 71.8856C518.288 72.6905 518.687 73.4305 519.275 74.0117C519.862 74.5929 520.611 74.9892 521.427 75.1505C522.242 75.3117 523.088 75.2306 523.857 74.9174C524.626 74.6043 525.284 74.0731 525.747 73.3913C526.209 72.7094 526.456 71.9075 526.456 71.0872C526.458 70.5438 526.352 70.0053 526.142 69.5026C525.933 68.9999 525.625 68.5429 525.236 68.1579C524.847 67.7728 524.384 67.4673 523.875 67.2589C523.366 67.0504 522.821 66.9431 522.269 66.9431Z" fill="#2C6762"/>
<path d="M341.223 75.8398C343.895 75.8398 346.061 73.7047 346.061 71.0708C346.061 68.4369 343.895 66.3018 341.223 66.3018C338.552 66.3018 336.386 68.4369 336.386 71.0708C336.386 73.7047 338.552 75.8398 341.223 75.8398Z" fill="#2C6762"/>
<path d="M381.456 96.8236C381.456 97.7993 381.75 98.7531 382.299 99.5645C382.849 100.376 383.631 101.008 384.545 101.382C385.459 101.755 386.466 101.853 387.436 101.662C388.407 101.472 389.299 101.002 389.998 100.312C390.698 99.6221 391.175 98.743 391.368 97.786C391.561 96.829 391.462 95.8371 391.083 94.9356C390.704 94.0341 390.063 93.2636 389.24 92.7215C388.417 92.1794 387.45 91.8901 386.46 91.8901C385.133 91.8901 383.86 92.4099 382.922 93.3351C381.983 94.2603 381.456 95.5151 381.456 96.8236Z" fill="#2C6762"/>
<path d="M431.73 177.108C433.407 177.108 434.766 175.768 434.766 174.115C434.766 172.462 433.407 171.122 431.73 171.122C430.053 171.122 428.694 172.462 428.694 174.115C428.694 175.768 430.053 177.108 431.73 177.108Z" fill="#2C6762"/>
<path d="M386.477 144.448C385.695 144.448 384.93 144.677 384.28 145.105C383.63 145.533 383.124 146.142 382.824 146.854C382.525 147.566 382.447 148.35 382.599 149.106C382.752 149.862 383.128 150.556 383.681 151.101C384.234 151.646 384.939 152.018 385.705 152.168C386.472 152.318 387.267 152.241 387.989 151.946C388.712 151.651 389.329 151.152 389.764 150.511C390.198 149.87 390.43 149.116 390.43 148.346C390.43 147.312 390.013 146.321 389.272 145.59C388.531 144.859 387.525 144.448 386.477 144.448Z" fill="#2C6762"/>
<path d="M431.73 75.2314C434.061 75.2314 435.95 73.3686 435.95 71.0708C435.95 68.773 434.061 66.9102 431.73 66.9102C429.399 66.9102 427.51 68.773 427.51 71.0708C427.51 73.3686 429.399 75.2314 431.73 75.2314Z" fill="#2C6762"/>
<path d="M477 154.249C480.307 154.249 482.988 151.606 482.988 148.346C482.988 145.085 480.307 142.442 477 142.442C473.693 142.442 471.012 145.085 471.012 148.346C471.012 151.606 473.693 154.249 477 154.249Z" fill="#2C6762"/>
<path d="M522.27 177.453C522.929 177.453 523.574 177.26 524.123 176.899C524.672 176.537 525.099 176.024 525.352 175.423C525.604 174.822 525.67 174.16 525.542 173.522C525.413 172.884 525.095 172.298 524.629 171.838C524.162 171.378 523.568 171.065 522.92 170.938C522.273 170.811 521.603 170.877 520.993 171.125C520.383 171.374 519.862 171.796 519.496 172.337C519.129 172.878 518.934 173.514 518.934 174.164C518.934 175.036 519.285 175.873 519.911 176.49C520.536 177.107 521.385 177.453 522.27 177.453Z" fill="#2C6762"/>
<path d="M477 102.678C478.175 102.684 479.327 102.347 480.308 101.707C481.288 101.068 482.055 100.156 482.509 99.0868C482.964 98.0176 483.086 96.8395 482.861 95.7017C482.636 94.5639 482.073 93.5177 481.244 92.6956C480.414 91.8736 479.356 91.3127 478.204 91.0842C477.051 90.8556 475.855 90.9696 474.768 91.4117C473.681 91.8538 472.752 92.6042 472.098 93.5676C471.444 94.5311 471.095 95.6643 471.095 96.8235C471.095 98.3705 471.716 99.8547 472.822 100.952C473.929 102.049 475.43 102.669 477 102.678Z" fill="#2C6762"/>
<path d="M24.3845 255.846C26.8718 255.846 28.8881 253.858 28.8881 251.406C28.8881 248.954 26.8718 246.966 24.3845 246.966C21.8972 246.966 19.8809 248.954 19.8809 251.406C19.8809 253.858 21.8972 255.846 24.3845 255.846Z" fill="#2C6762"/>
<path d="M74.0078 225.637C74.0078 224.788 73.7525 223.958 73.2741 223.252C72.7957 222.546 72.1158 221.996 71.3203 221.671C70.5248 221.346 69.6495 221.261 68.805 221.427C67.9605 221.593 67.1848 222.001 66.5759 222.602C65.9671 223.202 65.5524 223.967 65.3844 224.799C65.2165 225.632 65.3027 226.495 65.6322 227.279C65.9617 228.064 66.5197 228.734 67.2356 229.206C67.9515 229.677 68.7933 229.929 69.6543 229.929C70.8089 229.929 71.9163 229.477 72.7327 228.672C73.5491 227.867 74.0078 226.775 74.0078 225.637Z" fill="#2C6762"/>
<path d="M114.908 256.422C117.717 256.422 119.995 254.176 119.995 251.406C119.995 248.636 117.717 246.39 114.908 246.39C112.098 246.39 109.82 248.636 109.82 251.406C109.82 254.176 112.098 256.422 114.908 256.422Z" fill="#2C6762"/>
<path d="M114.908 308.421C117.984 308.421 120.479 305.961 120.479 302.928C120.479 299.894 117.984 297.435 114.908 297.435C111.831 297.435 109.336 299.894 109.336 302.928C109.336 305.961 111.831 308.421 114.908 308.421Z" fill="#2C6762"/>
<path d="M431.73 228.844C433.526 228.844 434.982 227.408 434.982 225.637C434.982 223.866 433.526 222.43 431.73 222.43C429.933 222.43 428.477 223.866 428.477 225.637C428.477 227.408 429.933 228.844 431.73 228.844Z" fill="#2C6762"/>
<path d="M477 257.688C480.519 257.688 483.372 254.875 483.372 251.406C483.372 247.937 480.519 245.124 477 245.124C473.481 245.124 470.628 247.937 470.628 251.406C470.628 254.875 473.481 257.688 477 257.688Z" fill="#2C6762"/>
<path d="M522.269 229.057C522.955 229.057 523.626 228.857 524.197 228.481C524.767 228.105 525.212 227.571 525.475 226.946C525.737 226.321 525.806 225.633 525.672 224.969C525.538 224.306 525.208 223.696 524.723 223.218C524.237 222.74 523.619 222.414 522.946 222.282C522.273 222.15 521.576 222.218 520.942 222.477C520.308 222.735 519.766 223.174 519.384 223.736C519.003 224.299 518.8 224.96 518.8 225.637C518.8 226.544 519.165 227.414 519.816 228.055C520.467 228.697 521.349 229.057 522.269 229.057Z" fill="#2C6762"/>
<path d="M24.3846 308.717C27.6273 308.717 30.256 306.125 30.256 302.928C30.256 299.731 27.6273 297.139 24.3846 297.139C21.1419 297.139 18.5132 299.731 18.5132 302.928C18.5132 306.125 21.1419 308.717 24.3846 308.717Z" fill="#2C6762"/>
</g>
</g>
<defs>
<clipPath id="clip0_78_313">
<rect width="560" height="320" rx="20" fill="white"/>
</clipPath>
</defs>
</svg>
