<svg width="25" height="27" viewBox="0 0 25 27" fill="none" xmlns="http://www.w3.org/2000/svg">
<path d="M14.3685 5.53536H17.349L12.7871 0.736328V3.94776C12.7871 4.81767 13.4926 5.53536 14.3685 5.53536Z" fill="white"/>
<path d="M17.4032 12.4629C13.395 12.4629 10.1348 15.7229 10.1348 19.7314C10.1348 23.7396 13.395 26.9998 17.4032 26.9998C21.4117 26.9998 24.6719 23.7396 24.6719 19.7314C24.6719 15.7229 21.4117 12.4629 17.4032 12.4629ZM21.3083 20.3518L17.744 24.1775C17.6527 24.275 17.525 24.3298 17.3851 24.3298C17.2452 24.3298 17.1235 24.275 17.0322 24.1775L13.4741 20.3518C13.2916 20.1572 13.3038 19.8469 13.4984 19.6644C13.6931 19.4819 14.0093 19.4941 14.1918 19.6887L16.9167 22.6083V15.656C16.9167 15.3884 17.1357 15.1694 17.4032 15.1694C17.671 15.1694 17.89 15.3884 17.89 15.656V22.6083L20.6027 19.6887C20.7852 19.4941 21.0893 19.4819 21.2839 19.6644C21.4846 19.8469 21.4908 20.151 21.3083 20.3518Z" fill="#FEB33F"/>
<path d="M9.42388 17.639H4.13809C3.87051 17.639 3.65154 17.4202 3.65154 17.1524C3.65154 16.8849 3.87051 16.6659 4.13809 16.6659H9.74626C10.0563 15.8753 10.4699 15.206 10.981 14.537H4.13809C3.87051 14.537 3.65154 14.3182 3.65154 14.0504C3.65154 13.7828 3.87051 13.5638 4.13809 13.5638H11.9055C13.3652 12.2865 15.2994 11.4716 17.41 11.4716C17.6107 11.4716 17.7751 11.4897 18.0183 11.508V6.50815H14.3688C12.9577 6.50815 11.8142 5.35253 11.8142 3.94745V0H2.48376C1.27932 0 0.318359 0.985266 0.318359 2.19568V20.7594C0.318359 21.9698 1.27932 22.9308 2.48376 22.9308H9.813C9.3934 21.9577 9.16227 20.8628 9.16227 19.7193C9.15609 19.0017 9.25353 18.3081 9.42388 17.639ZM4.13809 10.5226H10.2998C10.5674 10.5226 10.7863 10.7415 10.7863 11.0093C10.7863 11.2769 10.5674 11.4959 10.2998 11.4959H4.13809C3.87051 11.4959 3.65154 11.2769 3.65154 11.0093C3.65154 10.7415 3.87051 10.5226 4.13809 10.5226Z" fill="white"/>
</svg>
