<svg width="24" height="25" viewBox="0 0 24 25" fill="none" xmlns="http://www.w3.org/2000/svg">
<path d="M7.34675 15.8124C3.42066 11.3088 4.52177 5.31614 8.13196 2.22954C11.6609 -0.784866 17.004 -0.730715 20.4156 2.31979C24.1161 5.62299 24.6035 11.002 21.8146 14.8557C19.107 18.5921 13.4841 20.2437 8.62836 16.9405C8.13196 17.5091 7.63556 18.0777 7.13013 18.6643C7.32869 18.8448 7.50018 19.0073 7.71679 19.2059C6.01097 21.1372 4.31418 23.0506 2.59031 25C1.72387 24.2148 0.884498 23.4567 0 22.6625C1.70582 20.7492 3.40261 18.8539 5.12648 16.9405C5.37016 17.1391 5.5958 17.3286 5.85754 17.5362C6.35394 16.9586 6.84132 16.39 7.34675 15.8124ZM14.17 16.9766C18.3669 17.0037 21.7785 13.6734 21.8597 9.59406C21.95 5.18979 18.3669 1.74218 14.2151 1.7151C10.0363 1.68803 6.64276 5.05441 6.57958 9.19695C6.5164 13.4839 9.8468 16.9857 14.17 16.9766Z" fill="#B6B6B6"/>
</svg>
