<svg width="24" height="20" viewBox="0 0 24 20" fill="none" xmlns="http://www.w3.org/2000/svg">
<path fill-rule="evenodd" clip-rule="evenodd" d="M11.6791 0L20.165 0.239929C21.6644 0.282323 22.9046 1.42059 23.0751 2.91089C23.4526 6.20977 23.4526 9.54093 23.0751 12.8398C22.9046 14.3301 21.6644 15.4684 20.165 15.5108L13.7208 15.693V18.0837H17.5125C17.9957 18.0837 18.3875 18.4754 18.3875 18.9587C18.3875 19.4419 17.9957 19.8337 17.5125 19.8337H5.8458C5.36255 19.8337 4.9708 19.4419 4.9708 18.9587C4.9708 18.4754 5.36255 18.0837 5.8458 18.0837H9.63746V15.693L3.19321 15.5108C1.69379 15.4684 0.4536 14.3301 0.283085 12.8398C-0.0943617 9.54093 -0.0943616 6.20977 0.283085 2.91088C0.4536 1.42059 1.69379 0.282323 3.19321 0.239929L11.6791 0ZM11.6791 1.7507L3.24267 1.98923C2.61359 2.00702 2.09328 2.48457 2.02174 3.10982C1.65942 6.27651 1.65942 9.47419 2.02174 12.6409C2.09328 13.2661 2.61359 13.7437 3.24267 13.7615L11.6791 14L20.1156 13.7615C20.7446 13.7437 21.2649 13.2661 21.3365 12.6409C21.6988 9.47419 21.6988 6.27651 21.3365 3.10982C21.2649 2.48457 20.7446 2.00702 20.1156 1.98923L11.6791 1.7507Z" fill="white"/>
</svg>
