<svg width="4285" height="135" viewBox="0 0 4285 135" fill="none" xmlns="http://www.w3.org/2000/svg">
<path fill-rule="evenodd" clip-rule="evenodd" d="M4285 -15C4285 -15 3978.5 31.2766 3787 52C3537.5 79 3382.5 26 3238 26C3045.18 26 2851.5 76.5 2708 52C2564.5 27.5 2532.5 18.4999 2401.5 5C2270.5 -8.4999 2055 10.0001 2055 10.0001C1981 18.5 1673.5 54.5 1491.5 54.5C1285.5 54.5 989 10 855 10C721 10 624.589 38.7928 504 54.5C385 70.0003 317 75.0003 178.542 70.0003L0 75.0003V135H178.542C357.084 135 714.166 135 1071.25 135C1428.33 135 1785.42 135 2142.5 135C2499.59 135 2856.66 135 3213.75 135C3570.84 135 3927.91 135 4106.46 135H4285V-15Z" fill="#09021B"/>
</svg>
