<?xml version="1.0" encoding="utf-8"?><svg width="67" height="67" viewBox="0 0 67 67" xmlns="http://www.w3.org/2000/svg" xmlns:xlink="http://www.w3.org/1999/xlink"><svg width="36" height="36" fill="none" viewBox="0 0 36 36" id="sprite--Show" xmlns="http://www.w3.org/2000/svg"><path d="M5.105 20.846c2.632 2.616 7.222 6.243 12.444 6.243s9.81-3.627 12.442-6.243c.695-.69 1.043-1.036 1.264-1.714.158-.483.158-1.35 0-1.834-.221-.678-.57-1.024-1.264-1.714-2.631-2.617-7.22-6.243-12.442-6.243s-9.812 3.627-12.444 6.243c-.695.69-1.042 1.036-1.263 1.714-.158.483-.158 1.35 0 1.834.221.678.568 1.023 1.263 1.714Z" stroke="#171717" stroke-width="2" stroke-linecap="round" stroke-linejoin="round"/><path d="M14.59 18.215a2.958 2.958 0 1 0 5.917 0 2.958 2.958 0 0 0-5.917 0Z" stroke="#171717" stroke-width="2" stroke-linecap="round" stroke-linejoin="round"/></svg><svg width="31" height="31" fill="none" viewBox="0 0 31 31" id="sprite--user" x="36" xmlns="http://www.w3.org/2000/svg"><path d="M21.94 24.88a8.697 8.697 0 0 0-6.498-2.904 8.697 8.697 0 0 0-6.497 2.905m6.497 2.077c-6.19 0-11.21-5.019-11.21-11.21 0-6.19 5.02-11.209 11.21-11.209 6.191 0 11.21 5.019 11.21 11.21 0 6.19-5.019 11.21-11.21 11.21Zm0-8.718a3.737 3.737 0 1 1 0-7.473 3.737 3.737 0 0 1 0 7.473Z" stroke="#171717" stroke-width="2" stroke-linecap="round" stroke-linejoin="round"/></svg><svg width="31" height="31" fill="none" viewBox="0 0 31 31" id="sprite--zoom" y="36" xmlns="http://www.w3.org/2000/svg"><path d="m17.826 18.24 6.85 6.85m-12.559-4.567a7.992 7.992 0 1 1 0-15.984 7.992 7.992 0 0 1 0 15.984Z" stroke="#171717" stroke-width="2" stroke-linecap="round" stroke-linejoin="round"/></svg></svg>